<svg width="82" height="79" viewBox="0 0 82 79" fill="none" xmlns="http://www.w3.org/2000/svg">
<g clip-path="url(#clip0_3_159)" filter="url(#filter0_d_3_159)">
<path d="M51.7893 10.313C52.3872 10.313 52.8719 9.82836 52.8719 9.23049C52.8719 8.63262 52.3872 8.14795 51.7893 8.14795C51.1915 8.14795 50.7068 8.63262 50.7068 9.23049C50.7068 9.82836 51.1915 10.313 51.7893 10.313Z" fill="#2B2B2B"/>
<path d="M56.4414 10.313C57.0393 10.313 57.524 9.82836 57.524 9.23049C57.524 8.63262 57.0393 8.14795 56.4414 8.14795C55.8436 8.14795 55.3589 8.63262 55.3589 9.23049C55.3589 9.82836 55.8436 10.313 56.4414 10.313Z" fill="#2B2B2B"/>
<path d="M24.4758 10.3145H43.9569C44.5555 10.3145 45.0409 9.82912 45.0409 9.23047C45.0409 8.63182 44.5555 8.14648 43.9569 8.14648H24.4758C23.8772 8.14648 23.3918 8.63182 23.3918 9.23047C23.3918 9.82912 23.8772 10.3145 24.4758 10.3145Z" fill="#2B2B2B"/>
<path d="M75.1202 59.3696H73.2178V52.2685C73.2178 51.6698 72.7324 51.1845 72.1338 51.1845C71.5351 51.1845 71.0498 51.6698 71.0498 52.2685V59.3696C66.404 59.3696 13.8173 59.3696 10.9504 59.3696V22.7627C10.9504 21.2885 12.1497 20.089 13.624 20.089H18.7685V23.0093H15.9462C14.8017 23.0093 13.8706 23.9405 13.8706 25.085V54.3736C13.8706 55.5181 14.8017 56.4493 15.9462 56.4493H66.0536C67.1982 56.4493 68.1292 55.5181 68.1292 54.3736V25.085C68.1292 23.9405 67.1982 23.0093 66.0536 23.0093H63.2315V20.089H68.376C69.8502 20.089 71.0496 21.2883 71.0496 22.7627V47.1977C71.0496 47.7964 71.535 48.2817 72.1336 48.2817C72.7323 48.2817 73.2176 47.7964 73.2176 47.1977V22.7627C73.2176 20.0931 71.0457 17.9211 68.376 17.9211H63.2315V5.99145C63.2315 4.76582 62.2344 3.76855 61.0086 3.76855H20.9914C19.7656 3.76855 18.7685 4.76568 18.7685 5.99145V17.9211H13.6239C10.9543 17.9211 8.78225 20.0929 8.78225 22.7627V59.3697H6.87979C5.29182 59.3696 4 60.6615 4 62.2495C4 66.6509 7.58091 70.2318 11.9823 70.2318H70.0177C74.4191 70.2318 78 66.6509 78 62.2495C78 60.6614 76.7082 59.3696 75.1202 59.3696ZM16.0386 25.1772H18.7683V54.2814H16.0386V25.1772ZM65.9614 25.1772V54.2814H63.2317V25.1772H65.9614ZM20.9914 5.93667H61.0088C61.039 5.93667 61.0637 5.96124 61.0637 5.99159V12.5244H29.4164C28.8178 12.5244 28.3324 13.0097 28.3324 13.6084C28.3324 14.207 28.8178 14.6924 29.4164 14.6924H61.0637V54.2815H20.9363V14.6922H24.3487C24.9473 14.6922 25.4327 14.2069 25.4327 13.6082C25.4327 13.0096 24.9473 12.5243 24.3487 12.5243H20.9363V5.99145C20.9363 5.96124 20.961 5.93667 20.9914 5.93667ZM30.5504 61.5376H51.4496V62.627C51.4496 63.2278 50.9608 63.7166 50.36 63.7166H31.64C31.0392 63.7166 30.5504 63.2278 30.5504 62.627V61.5376ZM70.0177 68.0637H11.9823C8.77632 68.0637 6.16797 65.4554 6.16797 62.2494C6.16797 61.857 6.48724 61.5376 6.87979 61.5376H28.3824V62.627C28.3824 64.4233 29.8438 65.8846 31.64 65.8846H50.36C52.1562 65.8846 53.6176 64.4233 53.6176 62.627V61.5376H75.1202C75.5128 61.5376 75.832 61.8568 75.832 62.2494C75.832 65.4555 73.2237 68.0637 70.0177 68.0637Z" fill="#2B2B2B"/>
<path d="M26.5481 34.8115L25.7623 35.0139C24.0178 35.4633 22.9695 37.2389 23.419 38.9836L23.9617 41.0903C24.3401 42.5592 25.6673 43.5371 27.1187 43.537C27.7424 43.537 28.0905 43.3735 28.8461 43.1979C29.3955 43.838 30.2329 44.1925 31.1008 44.1093L34.902 49.871C35.2972 50.4701 35.962 50.8157 36.657 50.8157C37.0878 50.8157 37.2741 50.7082 38.4117 50.4321C39.5368 50.1425 40.213 48.9972 39.9232 47.8719L38.4738 42.2464L40.0206 41.848C44.1412 40.7865 48.4811 41.8024 51.6977 44.5644L51.7113 44.6172C51.9201 45.428 52.4323 46.1089 53.1534 46.5345C53.6425 46.8233 54.188 46.971 54.7414 46.971C55.0038 46.971 55.268 46.9378 55.5288 46.8706C56.3396 46.6617 57.0205 46.1495 57.4461 45.4284C57.8718 44.7074 57.9912 43.8637 57.7822 43.0531L52.0006 20.6126C51.7918 19.8017 51.2796 19.1209 50.5585 18.6952C49.8376 18.2697 48.9939 18.1503 48.183 18.3592C47.3722 18.568 46.6913 19.0802 46.2656 19.8013C45.84 20.5224 45.7206 21.366 45.9296 22.1767L45.9432 22.2294C44.4617 26.2019 41.153 29.1886 37.0325 30.2502L28.5214 32.443C27.3956 32.7331 26.628 33.7114 26.5481 34.8115ZM27.3907 41.3341C26.8081 41.4843 26.2115 41.1324 26.0612 40.5495L25.5185 38.4428C25.3679 37.8585 25.7189 37.264 26.3033 37.1134L26.9542 36.9456L28.0417 41.1665L27.3907 41.3341ZM37.8074 48.3491L36.686 48.638L33.3415 43.5688L36.3743 42.7874L37.8074 48.3491ZM48.1325 20.9032C48.2638 20.6809 48.4738 20.523 48.7238 20.4585C48.8045 20.4377 48.8853 20.4279 48.9649 20.4279C49.3953 20.4279 49.7889 20.7179 49.9012 21.1534L55.6827 43.5939C55.8157 44.11 55.5039 44.6381 54.9878 44.7711C54.4718 44.9041 53.9436 44.5925 53.8106 44.0762L48.0289 21.6357C47.9646 21.3857 48.0013 21.1256 48.1325 20.9032ZM46.7793 25.4745L50.8616 41.3191C45.0175 37.9137 39.4518 39.7816 39.3229 39.7888L37.4167 32.3898C37.5338 32.3335 43.302 31.2904 46.7793 25.4745ZM29.0622 34.5425L35.3172 32.931L37.2235 40.3299C35.32 40.8203 32.2818 41.6031 30.9686 41.9415C30.5142 42.0581 30.3994 41.5979 30.3879 41.5835L28.7221 35.1186C28.6571 34.8659 28.8097 34.6075 29.0622 34.5425Z" fill="#2B2B2B"/>
</g>
<defs>
<filter id="filter0_d_3_159" x="0" y="0" width="82" height="82" filterUnits="userSpaceOnUse" color-interpolation-filters="sRGB">
<feFlood flood-opacity="0" result="BackgroundImageFix"/>
<feColorMatrix in="SourceAlpha" type="matrix" values="0 0 0 0 0 0 0 0 0 0 0 0 0 0 0 0 0 0 127 0" result="hardAlpha"/>
<feOffset dy="4"/>
<feGaussianBlur stdDeviation="2"/>
<feComposite in2="hardAlpha" operator="out"/>
<feColorMatrix type="matrix" values="0 0 0 0 0 0 0 0 0 0 0 0 0 0 0 0 0 0 0.25 0"/>
<feBlend mode="normal" in2="BackgroundImageFix" result="effect1_dropShadow_3_159"/>
<feBlend mode="normal" in="SourceGraphic" in2="effect1_dropShadow_3_159" result="shape"/>
</filter>
<clipPath id="clip0_3_159">
<rect width="74" height="74" fill="white" transform="translate(4)"/>
</clipPath>
</defs>
</svg>
