<svg width="74" height="69" viewBox="0 0 74 69" fill="none" xmlns="http://www.w3.org/2000/svg">
<g filter="url(#filter0_d_3_111)">
<path d="M66.2188 7.4375H7.78125C6.79531 7.43859 5.85007 7.83074 5.1529 8.5279C4.45574 9.22507 4.06359 10.1703 4.0625 11.1562V48.3438C4.06359 49.3297 4.45574 50.2749 5.1529 50.9721C5.85007 51.6693 6.79531 52.0614 7.78125 52.0625H29.0552L27.7802 55.25H22.125C21.8432 55.25 21.573 55.3619 21.3737 55.5612C21.1744 55.7605 21.0625 56.0307 21.0625 56.3125V58.4375H14.6875C14.4057 58.4375 14.1355 58.5494 13.9362 58.7487C13.7369 58.948 13.625 59.2182 13.625 59.5C13.625 59.7818 13.7369 60.052 13.9362 60.2513C14.1355 60.4506 14.4057 60.5625 14.6875 60.5625H59.3125C59.5943 60.5625 59.8645 60.4506 60.0638 60.2513C60.2631 60.052 60.375 59.7818 60.375 59.5C60.375 59.2182 60.2631 58.948 60.0638 58.7487C59.8645 58.5494 59.5943 58.4375 59.3125 58.4375H52.9375V56.3125C52.9375 56.0307 52.8256 55.7605 52.6263 55.5612C52.427 55.3619 52.1568 55.25 51.875 55.25H46.2198L44.9448 52.0625H66.2188C67.2047 52.0614 68.1499 51.6693 68.8471 50.9721C69.5443 50.2749 69.9364 49.3297 69.9375 48.3438V11.1562C69.9364 10.1703 69.5443 9.22507 68.8471 8.5279C68.1499 7.83074 67.2047 7.43859 66.2188 7.4375ZM50.8125 57.375V58.4375H23.1875V57.375H50.8125ZM30.0698 55.25L31.3448 52.0625H42.6552L43.9302 55.25H30.0698ZM67.8125 48.3438C67.8121 48.7663 67.6441 49.1715 67.3453 49.4703C67.0465 49.7691 66.6413 49.9371 66.2188 49.9375H7.78125C7.35867 49.9371 6.9535 49.7691 6.65469 49.4703C6.35588 49.1715 6.18785 48.7663 6.1875 48.3438V45.6875H67.8125V48.3438ZM67.8125 43.5625H6.1875V11.1562C6.18785 10.7337 6.35588 10.3285 6.65469 10.0297C6.9535 9.73088 7.35867 9.56285 7.78125 9.5625H66.2188C66.6413 9.56285 67.0465 9.73088 67.3453 10.0297C67.6441 10.3285 67.8121 10.7337 67.8125 11.1562V43.5625Z" fill="#2B2B2B"/>
<path d="M32.1668 34.888C32.2835 34.9646 32.4141 35.0174 32.5512 35.0435C32.6883 35.0696 32.8291 35.0684 32.9658 35.04C33.1024 35.0117 33.2321 34.9567 33.3475 34.8782C33.4628 34.7997 33.5616 34.6992 33.6381 34.5826L42.0053 21.8326C42.16 21.597 42.2147 21.3096 42.1575 21.0337C42.1002 20.7578 41.9357 20.5159 41.7001 20.3613C41.4646 20.2066 41.1772 20.1519 40.9013 20.2092C40.6254 20.2664 40.3835 20.4309 40.2288 20.6665L31.8616 33.4165C31.785 33.5331 31.7322 33.6637 31.706 33.8008C31.6799 33.9379 31.6811 34.0788 31.7094 34.2155C31.7377 34.3521 31.7927 34.4819 31.8712 34.5973C31.9497 34.7127 32.0502 34.8115 32.1668 34.888Z" fill="#2B2B2B"/>
<path d="M43.7573 34.8165C43.9738 34.9969 44.2531 35.0839 44.5337 35.0583C44.8143 35.0328 45.0733 34.8968 45.2537 34.6804L50.5662 28.3054C50.7253 28.1144 50.8124 27.8738 50.8124 27.6252C50.8124 27.3767 50.7253 27.136 50.5662 26.9451L45.2537 20.5701C45.1647 20.462 45.0551 20.3726 44.9314 20.307C44.8077 20.2413 44.6723 20.2008 44.5328 20.1878C44.3934 20.1747 44.2528 20.1893 44.119 20.2307C43.9853 20.2722 43.861 20.3397 43.7534 20.4293C43.6459 20.519 43.5571 20.629 43.4921 20.7531C43.4272 20.8772 43.3875 21.0128 43.3752 21.1523C43.3629 21.2918 43.3783 21.4324 43.4205 21.5659C43.4627 21.6994 43.5309 21.8233 43.6212 21.9304L48.3668 27.6252L43.6212 33.3201C43.4408 33.5366 43.3538 33.8159 43.3793 34.0965C43.4049 34.3771 43.5408 34.6361 43.7573 34.8165Z" fill="#2B2B2B"/>
<path d="M28.7462 34.6804C28.8352 34.7884 28.9448 34.8779 29.0685 34.9435C29.1922 35.0091 29.3276 35.0496 29.4671 35.0627C29.6065 35.0758 29.7471 35.0612 29.8809 35.0197C30.0146 34.9782 30.1389 34.9107 30.2465 34.8211C30.354 34.7315 30.4428 34.6214 30.5078 34.4974C30.5727 34.3733 30.6124 34.2376 30.6247 34.0981C30.637 33.9586 30.6216 33.8181 30.5794 33.6845C30.5372 33.551 30.469 33.4272 30.3787 33.3201L25.6331 27.6252L30.3787 21.9304C30.469 21.8233 30.5372 21.6994 30.5794 21.5659C30.6216 21.4324 30.637 21.2918 30.6247 21.1523C30.6124 21.0128 30.5727 20.8772 30.5078 20.7531C30.4428 20.629 30.354 20.519 30.2465 20.4293C30.1389 20.3397 30.0146 20.2722 29.8809 20.2307C29.7471 20.1893 29.6065 20.1747 29.4671 20.1878C29.3276 20.2008 29.1922 20.2413 29.0685 20.307C28.9448 20.3726 28.8352 20.462 28.7462 20.5701L23.4337 26.9451C23.2746 27.136 23.1875 27.3767 23.1875 27.6252C23.1875 27.8737 23.2746 28.1144 23.4337 28.3054L28.7462 34.6804Z" fill="#2B2B2B"/>
</g>
<defs>
<filter id="filter0_d_3_111" x="-1" y="0" width="76" height="76" filterUnits="userSpaceOnUse" color-interpolation-filters="sRGB">
<feFlood flood-opacity="0" result="BackgroundImageFix"/>
<feColorMatrix in="SourceAlpha" type="matrix" values="0 0 0 0 0 0 0 0 0 0 0 0 0 0 0 0 0 0 127 0" result="hardAlpha"/>
<feOffset dy="4"/>
<feGaussianBlur stdDeviation="2"/>
<feComposite in2="hardAlpha" operator="out"/>
<feColorMatrix type="matrix" values="0 0 0 0 0 0 0 0 0 0 0 0 0 0 0 0 0 0 0.25 0"/>
<feBlend mode="normal" in2="BackgroundImageFix" result="effect1_dropShadow_3_111"/>
<feBlend mode="normal" in="SourceGraphic" in2="effect1_dropShadow_3_111" result="shape"/>
</filter>
</defs>
</svg>
