<svg width="82" height="80" viewBox="0 0 82 80" fill="none" xmlns="http://www.w3.org/2000/svg">
<g filter="url(#filter0_d_3_127)">
<path d="M36.375 38.1562H45.625V40.4688H36.375V38.1562Z" fill="#2B2B2B"/>
<path d="M39.8438 34.6875H42.1562V43.9375H39.8438V34.6875Z" fill="#2B2B2B"/>
<path d="M69.9062 38.1562H72.2188V40.4688H69.9062V38.1562Z" fill="#2B2B2B"/>
<path d="M60.6562 38.1562H62.9688V40.4688H60.6562V38.1562Z" fill="#2B2B2B"/>
<path d="M65.2812 33.5312H67.5938V35.8438H65.2812V33.5312Z" fill="#2B2B2B"/>
<path d="M65.2812 42.7812H67.5938V45.0938H65.2812V42.7812Z" fill="#2B2B2B"/>
<path d="M14.6597 20.3789L9.45654 13.875L14.6597 7.37109L16.4652 8.81641L12.4183 13.875L16.4652 18.9336L14.6597 20.3789Z" fill="#2B2B2B"/>
<path d="M32.6527 20.3789L30.8472 18.9336L34.8952 13.875L30.8472 8.81641L32.6527 7.37109L37.8547 13.875L32.6527 20.3789Z" fill="#2B2B2B"/>
<path d="M18.7378 17.7375L26.8338 8.48975L28.5738 10.0124L20.4778 19.2607L18.7378 17.7375Z" fill="#2B2B2B"/>
<path d="M13.25 50.875H8.625V46.25H10.9375V48.5625H13.25V50.875Z" fill="#2B2B2B"/>
<path d="M74.5312 2.3125H7.46875C5.55315 2.3125 4 3.86565 4 5.78125V52.0312C4 53.9469 5.55315 55.5 7.46875 55.5H31.75V61.2812C31.75 63.1969 30.1969 64.75 28.2812 64.75H22.5V71.6875H59.5V64.75H53.7188C51.8031 64.75 50.25 63.1969 50.25 61.2812V55.5H74.5312C76.4469 55.5 78 53.9469 78 52.0312V5.78125C78 3.86565 76.4469 2.3125 74.5312 2.3125ZM57.1875 67.0625V69.375H24.8125V67.0625H57.1875ZM41 62.4861C42.9156 62.4861 44.4688 60.9329 44.4688 59.0173V55.5H47.9375V61.2812C47.942 62.5363 48.3587 63.7552 49.1237 64.75H32.8763C33.6413 63.7552 34.058 62.5363 34.0625 61.2812V55.5H37.5312V59.0173C37.5312 60.9329 39.0844 62.4861 41 62.4861ZM39.8438 59.0173V55.5H42.1562V59.0173C42.1562 59.6558 41.6385 60.1736 41 60.1736C40.3615 60.1736 39.8438 59.6558 39.8438 59.0173ZM75.6875 52.0312C75.6875 52.6698 75.1698 53.1875 74.5312 53.1875H7.46875C6.83022 53.1875 6.3125 52.6698 6.3125 52.0312V41.625H29.669C30.6265 46.3319 34.3956 49.9553 39.1369 50.726C43.8776 51.4972 48.6009 49.2547 51.0003 45.0938H56.4349C58.3725 48.4626 61.8774 50.6288 65.7572 50.8558C69.6369 51.0828 73.3699 49.3399 75.6875 46.2201V52.0312ZM66.4375 48.5625C62.923 48.571 59.7112 46.5758 58.1608 43.422L57.8407 42.7812H49.5968L49.2767 43.422C47.2487 47.5107 42.5419 49.5099 38.1918 48.1295C33.8412 46.7485 31.1482 42.4019 31.8494 37.8915C32.55 33.3816 36.436 30.0574 41 30.0625H66.4375C71.5463 30.0625 75.6875 34.2037 75.6875 39.3125C75.6875 44.4213 71.5463 48.5625 66.4375 48.5625ZM75.6875 32.4049C73.5128 29.4793 70.083 27.7534 66.4375 27.75H41C34.6169 27.7568 29.4443 32.9294 29.4375 39.3125H6.3125V5.78125C6.3125 5.14272 6.83022 4.625 7.46875 4.625H74.5312C75.1698 4.625 75.6875 5.14272 75.6875 5.78125V32.4049Z" fill="#2B2B2B"/>
<path d="M51.4062 38.1562H56.0312V40.4688H51.4062V38.1562Z" fill="#2B2B2B"/>
<path d="M38.6875 9.25H47.9375V11.5625H38.6875V9.25Z" fill="#2B2B2B"/>
<path d="M52.5625 9.25H71.0625V11.5625H52.5625V9.25Z" fill="#2B2B2B"/>
<path d="M54.875 13.875H71.0625V16.1875H54.875V13.875Z" fill="#2B2B2B"/>
<path d="M41 13.875H50.25V16.1875H41V13.875Z" fill="#2B2B2B"/>
<path d="M38.6875 18.5H61.8125V20.8125H38.6875V18.5Z" fill="#2B2B2B"/>
<path d="M66.4375 18.5H71.0625V20.8125H66.4375V18.5Z" fill="#2B2B2B"/>
<path d="M10.9375 23.125H22.5V25.4375H10.9375V23.125Z" fill="#2B2B2B"/>
<path d="M27.125 23.125H49.0938V25.4375H27.125V23.125Z" fill="#2B2B2B"/>
<path d="M52.5625 23.125H71.0625V25.4375H52.5625V23.125Z" fill="#2B2B2B"/>
<path d="M10.9375 27.75H29.4375V30.0625H10.9375V27.75Z" fill="#2B2B2B"/>
<path d="M10.9375 32.375H20.1875V34.6875H10.9375V32.375Z" fill="#2B2B2B"/>
<path d="M22.5 32.375H27.125V34.6875H22.5V32.375Z" fill="#2B2B2B"/>
</g>
<defs>
<filter id="filter0_d_3_127" x="0" y="0" width="82" height="82" filterUnits="userSpaceOnUse" color-interpolation-filters="sRGB">
<feFlood flood-opacity="0" result="BackgroundImageFix"/>
<feColorMatrix in="SourceAlpha" type="matrix" values="0 0 0 0 0 0 0 0 0 0 0 0 0 0 0 0 0 0 127 0" result="hardAlpha"/>
<feOffset dy="4"/>
<feGaussianBlur stdDeviation="2"/>
<feComposite in2="hardAlpha" operator="out"/>
<feColorMatrix type="matrix" values="0 0 0 0 0 0 0 0 0 0 0 0 0 0 0 0 0 0 0.25 0"/>
<feBlend mode="normal" in2="BackgroundImageFix" result="effect1_dropShadow_3_127"/>
<feBlend mode="normal" in="SourceGraphic" in2="effect1_dropShadow_3_127" result="shape"/>
</filter>
</defs>
</svg>
