<svg width="76" height="76" viewBox="0 0 76 76" fill="none" xmlns="http://www.w3.org/2000/svg">
<g clip-path="url(#clip0_3_117)" filter="url(#filter0_d_3_117)">
<path d="M35.6094 49.3384C35.0591 49.3384 34.6133 49.7844 34.6133 50.3345C34.6133 50.8846 35.0591 51.3306 35.6094 51.3306H40.3906C40.9409 51.3306 41.3867 50.8846 41.3867 50.3345C41.3867 49.7844 40.9409 49.3384 40.3906 49.3384H35.6094Z" fill="#2B2B2B"/>
<path d="M15.9531 33.8716H22.5374C22.9396 34.9183 23.9528 35.6646 25.1394 35.6646C26.3259 35.6646 27.3391 34.9183 27.7413 33.8716H29.0573C29.6076 33.8716 30.0534 33.4256 30.0534 32.8755C30.0534 32.3254 29.6076 31.8794 29.0573 31.8794H27.7413C27.3391 30.8327 26.3259 30.0864 25.1394 30.0864C23.9528 30.0864 22.9396 30.8327 22.5374 31.8794H15.9531C15.4029 31.8794 14.957 32.3254 14.957 32.8755C14.957 33.4256 15.4029 33.8716 15.9531 33.8716ZM25.1394 32.0786C25.5788 32.0786 25.9362 32.436 25.9362 32.8755C25.9362 33.315 25.5788 33.6724 25.1394 33.6724C24.6999 33.6724 24.3425 33.315 24.3425 32.8755C24.3425 32.436 24.6999 32.0786 25.1394 32.0786Z" fill="#2B2B2B"/>
<path d="M15.9531 28.1606H17.2249C17.6271 29.2073 18.6403 29.9536 19.8269 29.9536C21.0134 29.9536 22.0266 29.2073 22.4288 28.1606H29.0573C29.6076 28.1606 30.0534 27.7147 30.0534 27.1646C30.0534 26.6144 29.6076 26.1685 29.0573 26.1685H22.4288C22.0266 25.1218 21.0134 24.3755 19.8269 24.3755C18.6403 24.3755 17.6271 25.1218 17.2249 26.1685H15.9531C15.4029 26.1685 14.957 26.6144 14.957 27.1646C14.957 27.7147 15.4029 28.1606 15.9531 28.1606ZM19.8269 26.3677C20.2663 26.3677 20.6237 26.7251 20.6237 27.1646C20.6237 27.604 20.2663 27.9614 19.8269 27.9614C19.3874 27.9614 19.03 27.604 19.03 27.1646C19.03 26.7251 19.3874 26.3677 19.8269 26.3677Z" fill="#2B2B2B"/>
<path d="M29.2566 18.9966C29.8067 18.9966 30.2527 18.5506 30.2527 18.0005C30.2527 17.4504 29.8067 17.0044 29.2566 17.0044C28.7065 17.0044 28.2605 17.4504 28.2605 18.0005C28.2605 18.5506 28.7065 18.9966 29.2566 18.9966Z" fill="#2B2B2B"/>
<path d="M26.5117 18.9966C27.0618 18.9966 27.5078 18.5506 27.5078 18.0005C27.5078 17.4504 27.0618 17.0044 26.5117 17.0044C25.9616 17.0044 25.5156 17.4504 25.5156 18.0005C25.5156 18.5506 25.9616 18.9966 26.5117 18.9966Z" fill="#2B2B2B"/>
<path d="M23.7668 18.9966C24.317 18.9966 24.7629 18.5506 24.7629 18.0005C24.7629 17.4504 24.317 17.0044 23.7668 17.0044C23.2167 17.0044 22.7708 17.4504 22.7708 18.0005C22.7708 18.5506 23.2167 18.9966 23.7668 18.9966Z" fill="#2B2B2B"/>
<path d="M69.0117 6.7048H68.6386L68.9169 6.42655C69.7503 5.59316 69.7503 4.23701 68.9169 3.40361L66.7364 1.22309C65.903 0.389828 64.547 0.389828 63.7134 1.22309L58.2321 6.70466H6.98828C5.34061 6.70466 4 8.04514 4 9.69294V51.0593C4 53.0732 5.63838 54.7116 7.65234 54.7116H31.2458V61.758H26.4453C25.1638 61.758 24.1211 62.8007 24.1211 64.0822V65.0775C24.1211 66.359 25.1638 67.4017 26.4453 67.4017H49.5547C50.8362 67.4017 51.8789 66.359 51.8789 65.0775V64.0822C51.8789 62.8007 50.8362 61.758 49.5547 61.758H44.7542V54.7116H55.3984C55.9487 54.7116 56.3945 54.2656 56.3945 53.7155C56.3945 53.1654 55.9487 52.7194 55.3984 52.7194H7.65234C6.73687 52.7194 5.99219 51.9747 5.99219 51.0593V48.1108H70.0078V51.0593C70.0078 51.9747 69.2631 52.7194 68.3477 52.7194H60.0469C59.4966 52.7194 59.0508 53.1654 59.0508 53.7155C59.0508 54.2656 59.4966 54.7116 60.0469 54.7116H68.3477C70.3616 54.7116 72 53.0732 72 51.0593V9.69308C72 8.04541 70.6594 6.7048 69.0117 6.7048ZM49.5547 63.7503C49.7378 63.7503 49.8867 63.8993 49.8867 64.0823V65.0776C49.8867 65.2606 49.7378 65.4096 49.5547 65.4096H26.4453C26.2622 65.4096 26.1133 65.2606 26.1133 65.0776V64.0823C26.1133 63.8993 26.2622 63.7503 26.4453 63.7503H49.5547ZM33.238 54.7119H42.7621V61.7582H33.238V54.7119ZM65.1222 2.63197C65.179 2.57526 65.2712 2.57539 65.3278 2.63197L67.5081 4.81235C67.5649 4.86906 67.5649 4.96137 67.5081 5.01795L65.4276 7.09845L63.0417 4.71248L65.1222 2.63197ZM61.6329 6.12122L64.0188 8.50719L63.324 9.20194L60.9382 6.81596L61.6329 6.12122ZM59.5294 8.2247L61.9154 10.6107L50.1282 22.3979L47.7422 20.0119L59.5294 8.2247ZM58.0547 17.3315C59.4095 17.3315 60.5117 18.4337 60.5117 19.7886C60.5117 21.1434 59.4095 22.2456 58.0547 22.2456C56.6999 22.2456 55.5977 21.1434 55.5977 19.7886C55.5977 19.7727 55.5998 19.7575 55.6 19.7417L58.0082 17.3339C58.0237 17.3336 58.039 17.3315 58.0547 17.3315ZM48.3984 23.4857L45.4504 24.6897L46.6545 21.7417L48.3984 23.4857ZM70.0078 46.1189H5.99219V9.69308C5.99219 9.1439 6.43897 8.69698 6.98828 8.69698H56.2401L54.7212 10.2158H20.8672C20.3169 10.2158 19.8711 10.6618 19.8711 11.2119C19.8711 11.762 20.3169 12.208 20.8672 12.208H52.7292L45.7033 19.2343C45.5047 19.4346 45.3494 19.6684 45.2425 19.93L43.0175 25.3774C42.8134 25.8777 42.9284 26.4479 43.3105 26.8299C43.567 27.0863 43.908 27.2223 44.2559 27.2223C44.4264 27.2223 44.5984 27.1897 44.7629 27.1226L50.2103 24.8977C50.4645 24.7939 50.6918 24.6435 50.8884 24.4529L53.9186 21.4231C54.5714 23.0698 56.1784 24.2379 58.0548 24.2379C60.5081 24.2379 62.504 22.242 62.504 19.7887C62.504 17.9126 61.3362 16.3057 59.6897 15.6528L63.1348 12.2081H66.4968V42.608H65.9688L62.359 36.3556C62.0841 35.879 61.4745 35.7158 60.9983 35.991C60.5219 36.2661 60.3587 36.8753 60.6338 37.3517L63.6685 42.608H49.7538L48.2614 40.0231L55.2187 27.9726L58.3094 33.326C58.5846 33.8024 59.1938 33.9658 59.6701 33.6906C60.1465 33.4155 60.3097 32.8063 60.0347 32.3299L56.7373 26.6188C56.4203 26.0698 55.8527 25.742 55.2186 25.742C54.5846 25.742 54.0168 26.0698 53.6998 26.6188L47.1109 38.031L38.6569 23.3883C38.3399 22.8393 37.7722 22.5115 37.138 22.5115C36.5041 22.5115 35.9364 22.8393 35.6193 23.3883L33.3733 27.2785V16.6013C33.3733 15.3198 32.3306 14.2771 31.0491 14.2771H13.9609C12.6794 14.2771 11.6367 15.3198 11.6367 16.6013V38.3826C11.6367 39.298 12.3814 40.0427 13.2969 40.0427H26.0042L24.5231 42.6081H9.50335V12.208H16.2188C16.769 12.208 17.2148 11.762 17.2148 11.2119C17.2148 10.6618 16.769 10.2158 16.2188 10.2158H9.17132C8.25584 10.2158 7.51116 10.9605 7.51116 11.876V42.9399C7.51116 43.8554 8.25584 44.6001 9.17132 44.6001H66.8288C67.7443 44.6001 68.489 43.8554 68.489 42.9399V11.876C68.489 10.9605 67.7443 10.2158 66.8288 10.2158H65.1272L66.6463 8.69698H69.0117C69.561 8.69698 70.0078 9.1439 70.0078 9.69308V46.1189ZM31.3816 22.1178V38.0503H13.6289V22.1178H31.3816ZM13.6289 20.1256V16.6011C13.6289 16.418 13.7778 16.269 13.9609 16.269H31.0495C31.2327 16.269 31.3816 16.418 31.3816 16.6011V20.1256H13.6289ZM28.3047 40.0425H31.7136C32.6291 40.0425 33.3737 39.2978 33.3737 38.3823V36.2723C33.6229 36.3918 33.9003 36.4565 34.1909 36.4565C34.8709 36.4565 35.4797 36.1048 35.8196 35.5161L37.5148 32.58C37.5661 32.4913 37.6445 32.4725 37.7009 32.4725C37.7576 32.4725 37.836 32.4913 37.8871 32.58L38.9322 34.3901C39.2722 34.9791 39.8812 35.3307 40.5613 35.3307C41.2413 35.3307 41.8502 34.9791 42.1901 34.3902L42.4496 33.9408L47.4535 42.6077H26.8236L28.3047 40.0425ZM33.3737 32.9379V31.2626L37.1386 24.7419L41.2993 31.9486L40.5612 33.2271L39.6123 31.5838C39.2134 30.8927 38.4988 30.4802 37.7008 30.4802C36.9028 30.4802 36.1883 30.8927 35.7893 31.5838L34.1905 34.3529L33.3737 32.9379Z" fill="#2B2B2B"/>
</g>
<defs>
<filter id="filter0_d_3_117" x="0" y="0" width="76" height="76" filterUnits="userSpaceOnUse" color-interpolation-filters="sRGB">
<feFlood flood-opacity="0" result="BackgroundImageFix"/>
<feColorMatrix in="SourceAlpha" type="matrix" values="0 0 0 0 0 0 0 0 0 0 0 0 0 0 0 0 0 0 127 0" result="hardAlpha"/>
<feOffset dy="4"/>
<feGaussianBlur stdDeviation="2"/>
<feComposite in2="hardAlpha" operator="out"/>
<feColorMatrix type="matrix" values="0 0 0 0 0 0 0 0 0 0 0 0 0 0 0 0 0 0 0.25 0"/>
<feBlend mode="normal" in2="BackgroundImageFix" result="effect1_dropShadow_3_117"/>
<feBlend mode="normal" in="SourceGraphic" in2="effect1_dropShadow_3_117" result="shape"/>
</filter>
<clipPath id="clip0_3_117">
<rect width="68" height="68" fill="white" transform="translate(4)"/>
</clipPath>
</defs>
</svg>
