<svg width="40" height="40" viewBox="0 0 40 40" fill="none" xmlns="http://www.w3.org/2000/svg">
<circle cx="20" cy="20" r="20" fill="#FFB400"/>
<path d="M12.5 14.75L17.75 12.5L22.25 14.75L26.9772 12.7243C27.0343 12.6998 27.0966 12.6899 27.1584 12.6954C27.2202 12.7009 27.2797 12.7217 27.3316 12.7559C27.3834 12.7901 27.4259 12.8367 27.4553 12.8913C27.4847 12.946 27.5001 13.0072 27.5 13.0693V25.25L22.25 27.5L17.75 25.25L13.0228 27.2758C12.9657 27.3002 12.9034 27.3101 12.8416 27.3046C12.7798 27.2991 12.7203 27.2783 12.6684 27.2441C12.6166 27.2099 12.5741 27.1633 12.5447 27.1087C12.5153 27.054 12.4999 26.9928 12.5 26.9307V14.75ZM22.25 25.823V16.382L22.2013 16.403L17.75 14.177V23.618L17.7987 23.597L22.25 25.823Z" fill="#2B2B2B"/>
</svg>
