<svg width="40" height="40" viewBox="0 0 40 40" fill="none" xmlns="http://www.w3.org/2000/svg">
<circle cx="20" cy="20" r="20" fill="#FFB400"/>
<path d="M15.5 12.5H24.5C24.6989 12.5 24.8897 12.579 25.0303 12.7197C25.171 12.8603 25.25 13.0511 25.25 13.25V26.75C25.25 26.9489 25.171 27.1397 25.0303 27.2803C24.8897 27.421 24.6989 27.5 24.5 27.5H15.5C15.3011 27.5 15.1103 27.421 14.9697 27.2803C14.829 27.1397 14.75 26.9489 14.75 26.75V13.25C14.75 13.0511 14.829 12.8603 14.9697 12.7197C15.1103 12.579 15.3011 12.5 15.5 12.5ZM20 23.75C19.8011 23.75 19.6103 23.829 19.4697 23.9697C19.329 24.1103 19.25 24.3011 19.25 24.5C19.25 24.6989 19.329 24.8897 19.4697 25.0303C19.6103 25.171 19.8011 25.25 20 25.25C20.1989 25.25 20.3897 25.171 20.5303 25.0303C20.671 24.8897 20.75 24.6989 20.75 24.5C20.75 24.3011 20.671 24.1103 20.5303 23.9697C20.3897 23.829 20.1989 23.75 20 23.75Z" fill="#2B2B2B"/>
</svg>
