<svg width="80" height="86" viewBox="0 0 80 86" fill="none" xmlns="http://www.w3.org/2000/svg">
<g filter="url(#filter0_d_3_152)">
<path d="M56.3549 72.9677H75.7127L70.7434 58.0584C69.4438 54.1597 66.1275 51.2686 62.0879 50.5113L48.8065 48.0203V44.9469C51.9881 42.6509 54.2338 39.1535 54.8855 35.1201C57.8545 34.6182 60.1291 32.0454 60.1291 28.9355V20.129C60.1291 9.03039 51.0987 0 40 0C28.9014 0 19.871 9.03039 19.871 20.129V28.9355C19.871 32.0416 22.1343 34.6295 25.0983 35.1365C25.7525 39.1698 28.0107 42.671 31.1936 44.9657V48.0216L17.9109 50.5126C13.8725 51.2699 10.555 54.1609 9.25545 58.0597L4.28735 72.9677H23.6452V70.4516H20.2245L22.3494 61.9496L19.9087 61.3407L17.6304 70.4516H7.77723L11.6433 58.8548C12.6535 55.8228 15.2338 53.5734 18.3752 52.9834L26.389 51.4813L28.4384 60.7004C27.0998 61.2816 26.1613 62.6126 26.1613 64.1613V74.2258C26.1613 76.3066 27.8547 78 29.9355 78H50.0646C52.1454 78 53.8388 76.3066 53.8388 74.2258V64.1613C53.8388 62.6126 52.9002 61.2816 51.5629 60.7004L53.6123 51.4813L61.6262 52.9834C64.7676 53.5734 67.3466 55.8228 68.3581 58.8548L72.2228 70.4516H62.3697L60.0913 61.3407L57.6507 61.9496L59.7756 70.4516H56.3549V72.9677ZM51.1377 51.017L49.4003 58.8346L48.531 55.3548H43.037L47.9686 50.4232L51.1377 51.017ZM47.1949 60.3871H32.8052L33.4342 57.871H46.5659L47.1949 60.3871ZM40 54.834L33.7097 48.5437V46.4226C35.627 47.3057 37.7544 47.8064 40 47.8064C42.2469 47.8064 44.3731 47.2995 46.2904 46.4163V48.5437L40 54.834ZM55.0968 32.4782V25.394C56.5574 25.9149 57.6129 27.2987 57.6129 28.9367C57.6129 30.5747 56.5574 31.9574 55.0968 32.4782ZM24.9033 32.4945C23.4389 31.975 22.3871 30.576 22.3871 28.9355C22.3871 27.295 23.4389 25.896 24.9033 25.3764V32.4945ZM22.3871 23.9359V20.129C22.3871 10.4168 30.2878 2.51613 40 2.51613C49.7123 2.51613 57.6129 10.4168 57.6129 20.129V23.9359C56.8682 23.3723 56.0077 22.9559 55.0566 22.7685C54.859 21.2827 53.5985 20.129 52.0598 20.129C51.261 20.129 50.4785 20.4536 49.8494 21.0826C47.7246 23.2075 45.0323 24.5625 42.1161 25.0028L42.1966 24.8417C42.4055 24.4215 42.5162 23.9523 42.5162 23.483V23.166C42.5162 21.4915 41.1537 20.129 39.4792 20.129C38.6803 20.129 37.8978 20.4536 37.3317 21.0185C34.6809 23.668 31.1646 25.1374 27.4194 25.1613V22.6452H26.1613C24.7397 22.6452 23.4414 23.1371 22.3871 23.9359ZM27.4194 32.7097V27.6774C31.8365 27.6535 35.9856 25.9224 39.1093 22.7986C39.4125 22.4942 40 22.742 40 23.166V23.483C40 23.5635 39.9812 23.6441 39.9447 23.717L37.9645 27.6774H40C44.3932 27.6774 48.5222 25.9677 51.69 22.7986C51.9944 22.4942 52.5807 22.742 52.5807 23.166V32.7097C52.5807 39.6466 46.937 45.2903 40 45.2903C33.0631 45.2903 27.4194 39.6466 27.4194 32.7097ZM32.0315 50.4232L36.9631 55.3548H31.4691L30.5998 58.8346L28.8624 51.017L32.0315 50.4232ZM29.9355 75.4839C29.2423 75.4839 28.6775 74.9203 28.6775 74.2258V64.1613C28.6775 63.4668 29.2423 62.9032 29.9355 62.9032H33.8494C32.2126 64.5035 31.1936 66.7303 31.1936 69.1936C31.1936 71.6568 32.2126 73.8836 33.8494 75.4839H29.9355ZM40 75.4839C36.5316 75.4839 33.7097 72.662 33.7097 69.1936C33.7097 65.7251 36.5316 62.9032 40 62.9032C43.4685 62.9032 46.2904 65.7251 46.2904 69.1936C46.2904 72.662 43.4685 75.4839 40 75.4839ZM51.3226 74.2258C51.3226 74.9203 50.7578 75.4839 50.0646 75.4839H46.1507C47.7875 73.8836 48.8065 71.6568 48.8065 69.1936C48.8065 66.7303 47.7875 64.5035 46.1507 62.9032H50.0646C50.7578 62.9032 51.3226 63.4668 51.3226 64.1613V74.2258Z" fill="#2B2B2B"/>
<path d="M40 65.4194C37.9192 65.4194 36.2258 67.1128 36.2258 69.1936C36.2258 71.2745 37.9192 72.9678 40 72.9678C42.0809 72.9678 43.7742 71.2745 43.7742 69.1936C43.7742 67.1128 42.0809 65.4194 40 65.4194ZM40 70.4517C39.3068 70.4517 38.742 69.8881 38.742 69.1936C38.742 68.4992 39.3068 67.9356 40 67.9356C40.6932 67.9356 41.2581 68.4992 41.2581 69.1936C41.2581 69.8881 40.6932 70.4517 40 70.4517Z" fill="#2B2B2B"/>
</g>
<defs>
<filter id="filter0_d_3_152" x="-3" y="0" width="86" height="86" filterUnits="userSpaceOnUse" color-interpolation-filters="sRGB">
<feFlood flood-opacity="0" result="BackgroundImageFix"/>
<feColorMatrix in="SourceAlpha" type="matrix" values="0 0 0 0 0 0 0 0 0 0 0 0 0 0 0 0 0 0 127 0" result="hardAlpha"/>
<feOffset dy="4"/>
<feGaussianBlur stdDeviation="2"/>
<feComposite in2="hardAlpha" operator="out"/>
<feColorMatrix type="matrix" values="0 0 0 0 0 0 0 0 0 0 0 0 0 0 0 0 0 0 0.25 0"/>
<feBlend mode="normal" in2="BackgroundImageFix" result="effect1_dropShadow_3_152"/>
<feBlend mode="normal" in="SourceGraphic" in2="effect1_dropShadow_3_152" result="shape"/>
</filter>
</defs>
</svg>
